<?xml version="1.0" encoding="UTF-8" standalone="no"?>
<!DOCTYPE svg PUBLIC "-//W3C//DTD SVG 1.1//EN"
 "http://www.w3.org/Graphics/SVG/1.1/DTD/svg11.dtd">
<!-- Generated by graphviz version 2.46.0 (20210119.1425)
 -->
<!-- Title: dependencies Pages: 1 -->
<svg width="504pt" height="211pt"
 viewBox="0.00 0.00 504.00 211.00" xmlns="http://www.w3.org/2000/svg" xmlns:xlink="http://www.w3.org/1999/xlink">
<g id="graph0" class="graph" transform="scale(1 1) rotate(0) translate(4 207)">
<title>dependencies</title>
<polygon fill="white" stroke="transparent" points="-4,4 -4,-207 500,-207 500,4 -4,4"/>
<text text-anchor="start" x="227.01" y="-42.4" font-family="sans-serif" font-weight="bold" font-size="14.00">Legend</text>
<polygon fill="#ffffb3" stroke="transparent" points="14,-10 14,-30 34,-30 34,-10 14,-10"/>
<text text-anchor="start" x="37.63" y="-15.4" font-family="sans-serif" font-size="14.00"> &#160;Declarations</text>
<polygon fill="#8dd3c7" stroke="transparent" points="127,-10 127,-30 147,-30 147,-10 127,-10"/>
<text text-anchor="start" x="150.73" y="-15.4" font-family="sans-serif" font-size="14.00"> &#160;Module</text>
<polygon fill="#80b1d3" stroke="transparent" points="213,-10 213,-30 233,-30 233,-10 213,-10"/>
<text text-anchor="start" x="236.78" y="-15.4" font-family="sans-serif" font-size="14.00"> &#160;Bootstrap</text>
<polygon fill="#fdb462" stroke="transparent" points="310,-10 310,-30 330,-30 330,-10 310,-10"/>
<text text-anchor="start" x="333.67" y="-15.4" font-family="sans-serif" font-size="14.00"> &#160;Providers</text>
<polygon fill="#fb8072" stroke="transparent" points="406,-10 406,-30 426,-30 426,-10 406,-10"/>
<text text-anchor="start" x="429.73" y="-15.4" font-family="sans-serif" font-size="14.00"> &#160;Exports</text>
<g id="clust1" class="cluster">
<title>cluster_ChatModule</title>
<polygon fill="none" stroke="black" stroke-dasharray="1,5" points="63,-70 63,-195 433,-195 433,-70 63,-70"/>
</g>
<g id="clust3" class="cluster">
<title>cluster_ChatModule_imports</title>
<polygon fill="none" stroke="black" points="71,-78 71,-130 425,-130 425,-78 71,-78"/>
</g>
<!-- AuthModule -->
<g id="node1" class="node">
<title>AuthModule</title>
<polygon fill="#8dd3c7" stroke="black" points="416.55,-122 413.55,-126 392.55,-126 389.55,-122 329.45,-122 329.45,-86 416.55,-86 416.55,-122"/>
<text text-anchor="middle" x="373" y="-99.8" font-family="Times,serif" font-size="14.00">AuthModule</text>
</g>
<!-- ChatModule -->
<g id="node4" class="node">
<title>ChatModule</title>
<polygon fill="#8dd3c7" stroke="black" points="296.99,-187 293.99,-191 272.99,-191 269.99,-187 211.01,-187 211.01,-151 296.99,-151 296.99,-187"/>
<text text-anchor="middle" x="254" y="-164.8" font-family="Times,serif" font-size="14.00">ChatModule</text>
</g>
<!-- AuthModule&#45;&gt;ChatModule -->
<g id="edge1" class="edge">
<title>AuthModule&#45;&gt;ChatModule</title>
<path fill="none" stroke="black" d="M373,-122.11C373,-141.34 373,-169 373,-169 373,-169 307.3,-169 307.3,-169"/>
<polygon fill="black" stroke="black" points="307.3,-165.5 297.3,-169 307.3,-172.5 307.3,-165.5"/>
</g>
<!-- MessagesModule -->
<g id="node2" class="node">
<title>MessagesModule</title>
<polygon fill="#8dd3c7" stroke="black" points="310.97,-122 307.97,-126 286.97,-126 283.97,-122 197.03,-122 197.03,-86 310.97,-86 310.97,-122"/>
<text text-anchor="middle" x="254" y="-99.8" font-family="Times,serif" font-size="14.00">MessagesModule</text>
</g>
<!-- MessagesModule&#45;&gt;ChatModule -->
<g id="edge2" class="edge">
<title>MessagesModule&#45;&gt;ChatModule</title>
<path fill="none" stroke="black" d="M254,-122.11C254,-122.11 254,-140.99 254,-140.99"/>
<polygon fill="black" stroke="black" points="250.5,-140.99 254,-150.99 257.5,-140.99 250.5,-140.99"/>
</g>
<!-- RoomsModule -->
<g id="node3" class="node">
<title>RoomsModule</title>
<polygon fill="#8dd3c7" stroke="black" points="178.72,-122 175.72,-126 154.72,-126 151.72,-122 79.28,-122 79.28,-86 178.72,-86 178.72,-122"/>
<text text-anchor="middle" x="129" y="-99.8" font-family="Times,serif" font-size="14.00">RoomsModule</text>
</g>
<!-- RoomsModule&#45;&gt;ChatModule -->
<g id="edge3" class="edge">
<title>RoomsModule&#45;&gt;ChatModule</title>
<path fill="none" stroke="black" d="M129,-122.11C129,-141.34 129,-169 129,-169 129,-169 200.98,-169 200.98,-169"/>
<polygon fill="black" stroke="black" points="200.98,-172.5 210.98,-169 200.98,-165.5 200.98,-172.5"/>
</g>
</g>
</svg>
