<?xml version="1.0" encoding="UTF-8" standalone="no"?>
<!DOCTYPE svg PUBLIC "-//W3C//DTD SVG 1.1//EN"
 "http://www.w3.org/Graphics/SVG/1.1/DTD/svg11.dtd">
<!-- Generated by graphviz version 2.46.0 (20210119.1425)
 -->
<!-- Title: dependencies Pages: 1 -->
<svg width="504pt" height="211pt"
 viewBox="0.00 0.00 504.00 211.00" xmlns="http://www.w3.org/2000/svg" xmlns:xlink="http://www.w3.org/1999/xlink">
<g id="graph0" class="graph" transform="scale(1 1) rotate(0) translate(4 207)">
<title>dependencies</title>
<polygon fill="white" stroke="transparent" points="-4,4 -4,-207 500,-207 500,4 -4,4"/>
<text text-anchor="start" x="227.01" y="-42.4" font-family="sans-serif" font-weight="bold" font-size="14.00">Legend</text>
<polygon fill="#ffffb3" stroke="transparent" points="14,-10 14,-30 34,-30 34,-10 14,-10"/>
<text text-anchor="start" x="37.63" y="-15.4" font-family="sans-serif" font-size="14.00"> &#160;Declarations</text>
<polygon fill="#8dd3c7" stroke="transparent" points="127,-10 127,-30 147,-30 147,-10 127,-10"/>
<text text-anchor="start" x="150.73" y="-15.4" font-family="sans-serif" font-size="14.00"> &#160;Module</text>
<polygon fill="#80b1d3" stroke="transparent" points="213,-10 213,-30 233,-30 233,-10 213,-10"/>
<text text-anchor="start" x="236.78" y="-15.4" font-family="sans-serif" font-size="14.00"> &#160;Bootstrap</text>
<polygon fill="#fdb462" stroke="transparent" points="310,-10 310,-30 330,-30 330,-10 310,-10"/>
<text text-anchor="start" x="333.67" y="-15.4" font-family="sans-serif" font-size="14.00"> &#160;Providers</text>
<polygon fill="#fb8072" stroke="transparent" points="406,-10 406,-30 426,-30 426,-10 406,-10"/>
<text text-anchor="start" x="429.73" y="-15.4" font-family="sans-serif" font-size="14.00"> &#160;Exports</text>
<g id="clust1" class="cluster">
<title>cluster_AppModule</title>
<polygon fill="none" stroke="black" stroke-dasharray="1,5" points="11,-70 11,-195 485,-195 485,-70 11,-70"/>
</g>
<g id="clust3" class="cluster">
<title>cluster_AppModule_imports</title>
<polygon fill="none" stroke="black" points="19,-78 19,-130 477,-130 477,-78 19,-78"/>
</g>
<!-- AuthModule -->
<g id="node1" class="node">
<title>AuthModule</title>
<polygon fill="#8dd3c7" stroke="black" points="468.55,-122 465.55,-126 444.55,-126 441.55,-122 381.45,-122 381.45,-86 468.55,-86 468.55,-122"/>
<text text-anchor="middle" x="425" y="-99.8" font-family="Times,serif" font-size="14.00">AuthModule</text>
</g>
<!-- AppModule -->
<g id="node5" class="node">
<title>AppModule</title>
<polygon fill="#8dd3c7" stroke="black" points="302.66,-187 299.66,-191 278.66,-191 275.66,-187 219.34,-187 219.34,-151 302.66,-151 302.66,-187"/>
<text text-anchor="middle" x="261" y="-164.8" font-family="Times,serif" font-size="14.00">AppModule</text>
</g>
<!-- AuthModule&#45;&gt;AppModule -->
<g id="edge1" class="edge">
<title>AuthModule&#45;&gt;AppModule</title>
<path fill="none" stroke="black" d="M425,-122.11C425,-141.34 425,-169 425,-169 425,-169 312.81,-169 312.81,-169"/>
<polygon fill="black" stroke="black" points="312.81,-165.5 302.81,-169 312.81,-172.5 312.81,-165.5"/>
</g>
<!-- ChatModule -->
<g id="node2" class="node">
<title>ChatModule</title>
<polygon fill="#8dd3c7" stroke="black" points="362.99,-122 359.99,-126 338.99,-126 335.99,-122 277.01,-122 277.01,-86 362.99,-86 362.99,-122"/>
<text text-anchor="middle" x="320" y="-99.8" font-family="Times,serif" font-size="14.00">ChatModule</text>
</g>
<!-- ChatModule&#45;&gt;AppModule -->
<g id="edge2" class="edge">
<title>ChatModule&#45;&gt;AppModule</title>
<path fill="none" stroke="black" d="M289.92,-122.11C289.92,-122.11 289.92,-140.99 289.92,-140.99"/>
<polygon fill="black" stroke="black" points="286.42,-140.99 289.92,-150.99 293.42,-140.99 286.42,-140.99"/>
</g>
<!-- MessagesModule -->
<g id="node3" class="node">
<title>MessagesModule</title>
<polygon fill="#8dd3c7" stroke="black" points="258.97,-122 255.97,-126 234.97,-126 231.97,-122 145.03,-122 145.03,-86 258.97,-86 258.97,-122"/>
<text text-anchor="middle" x="202" y="-99.8" font-family="Times,serif" font-size="14.00">MessagesModule</text>
</g>
<!-- MessagesModule&#45;&gt;AppModule -->
<g id="edge3" class="edge">
<title>MessagesModule&#45;&gt;AppModule</title>
<path fill="none" stroke="black" d="M239.08,-122.11C239.08,-122.11 239.08,-140.99 239.08,-140.99"/>
<polygon fill="black" stroke="black" points="235.58,-140.99 239.08,-150.99 242.58,-140.99 235.58,-140.99"/>
</g>
<!-- RoomsModule -->
<g id="node4" class="node">
<title>RoomsModule</title>
<polygon fill="#8dd3c7" stroke="black" points="126.72,-122 123.72,-126 102.72,-126 99.72,-122 27.28,-122 27.28,-86 126.72,-86 126.72,-122"/>
<text text-anchor="middle" x="77" y="-99.8" font-family="Times,serif" font-size="14.00">RoomsModule</text>
</g>
<!-- RoomsModule&#45;&gt;AppModule -->
<g id="edge4" class="edge">
<title>RoomsModule&#45;&gt;AppModule</title>
<path fill="none" stroke="black" d="M77,-122.11C77,-141.34 77,-169 77,-169 77,-169 209.25,-169 209.25,-169"/>
<polygon fill="black" stroke="black" points="209.25,-172.5 219.25,-169 209.25,-165.5 209.25,-172.5"/>
</g>
</g>
</svg>
